<svg width="31" height="35" viewBox="0 0 31 35" fill="none" xmlns="http://www.w3.org/2000/svg">
<path d="M30.9129 1.09972C17.4121 -4.03469 8.64994 10.1293 20.774 16.3966C24.1123 18.1219 22.5392 20.7112 20.2053 20.4513C10.4875 19.37 4.94684 28.952 17.3767 34.3804C16.9232 32.5089 18.4786 27.8796 24.52 27.8796C21.1241 29.175 19.4505 31.2253 20.003 34.3804H21.4579C26.6795 34.3804 30.9129 30.4557 30.9129 25.6152C30.9129 19.986 28.6824 17.5753 26.0177 15.0185C22.1773 11.3375 22.7238 2.83237 30.9129 1.09972Z" fill="url(#paint0_linear)"/>
<path d="M13.706 18.435C3.11371 23.6403 9.72671 33.1603 15.0856 34.3789H9.45788C9.45788 34.3789 1.65433 33.3006 2.24813 25.6137C2.84192 17.9269 11.1093 17.8397 13.706 18.435Z" fill="url(#paint1_linear)"/>
<path d="M13.706 18.435C3.11371 23.6403 9.72671 33.1603 15.0856 34.3789H9.45788C9.45788 34.3789 1.65433 33.3006 2.24813 25.6137C2.84192 17.9269 11.1093 17.8397 13.706 18.435Z" fill="url(#paint2_linear)"/>
<path opacity="0.12" d="M13.7061 18.435C13.1492 18.3065 12.3294 18.2105 11.3811 18.2149C1.11672 23.5547 7.66916 33.144 12.9882 34.3804H15.0857C9.72676 33.1603 3.11229 23.6403 13.7061 18.435Z" fill="url(#paint3_linear)"/>
<path d="M14.613 12.7792C13.5923 10.24 10.9099 9.56944 9.94237 9.91803C9.99555 9.42025 9.51549 8.29469 8.97782 7.49854C8.71785 9.91212 7.26881 11.9786 5.55389 14.0111C6.54799 15.8575 7.65582 17.4527 9.00293 19.082C10.13 18.6802 11.4298 18.4513 12.8981 18.4513C15.9601 18.4513 18.6987 17.7541 19.4505 16.6595C18.3781 16.7098 15.6337 15.3183 14.613 12.7792Z" fill="url(#paint4_linear)"/>
<path opacity="0.45" d="M12.7666 17.048C11.3161 16.8442 9.99999 17.2785 8.87148 17.6787C8.87148 17.6787 8.72082 18.7364 9.00295 19.082C10.13 18.6802 11.4298 18.4513 12.8981 18.4513C15.9601 18.4513 18.6987 17.7541 19.4505 16.6595C17.5066 17.2711 16.0487 17.5089 12.7666 17.048Z" fill="url(#paint5_linear)"/>
<path d="M9.23486 19.0022C9.23634 19.0008 9.23781 18.9993 9.24077 18.9993C14.9675 17.3375 15.2954 14.3685 14.6115 12.7792C13.5908 10.24 10.9084 9.56944 9.94092 9.91803C9.99409 9.42025 9.51403 8.29469 8.97637 7.49854C8.33235 13.4734 0 17.1898 0 25.6152C0 30.4557 4.23338 34.3804 9.45495 34.3804H15.0827C1.68242 34.3804 0.683902 21.8058 9.23486 19.0022Z" fill="url(#paint6_linear)"/>
<path opacity="0.45" d="M7.15804 18.4439C7.15952 18.4424 7.16099 18.4409 7.16394 18.4409C15.3294 15.7688 11.2865 9.91803 9.94238 9.91803C9.99555 9.42025 9.5155 8.29469 8.97783 7.49854C8.33381 13.4734 0.00146484 17.1898 0.00146484 25.6152C0.00146484 30.4557 4.23485 34.3804 9.45641 34.3804H13.0074C-0.394402 34.3804 -1.10636 21.2356 7.15804 18.4439Z" fill="url(#paint7_linear)"/>
<path d="M30.9129 1.09972C17.4121 -4.03469 8.64995 10.1293 20.774 16.3966C20.8848 16.4542 20.9897 16.5118 21.0901 16.5709C24.0192 18.1337 31.034 20.4838 30.548 28.0229C30.7829 27.2578 30.9129 26.4498 30.9129 25.6152C30.9129 19.986 28.6839 17.5739 26.0178 15.0185C22.1492 11.3109 22.7238 2.83237 30.9129 1.09972Z" fill="url(#paint8_linear)"/>
<path opacity="0.45" d="M30.9129 1.09972C29.3457 0.502973 27.8405 0.167668 26.4269 0.0494995C23.9262 0.0672248 17.7947 1.98451 18.1418 8.03621C18.5761 15.6152 28.7711 15.8191 30.4712 21.7733C29.6854 18.7201 28.0045 16.8767 26.0178 15.0185C22.1965 11.4424 22.7238 2.83237 30.9129 1.09972Z" fill="url(#paint9_linear)"/>
<path d="M26.0177 15.0185C22.1492 11.3095 22.9217 2.8117 31 1.12041C21.2851 -1.47043 15.9882 9.86783 26.6957 15.6802C26.6972 15.6802 26.6987 15.6817 26.7002 15.6817C26.4771 15.4616 26.2497 15.2415 26.0177 15.0185Z" fill="url(#paint10_linear)"/>
<defs>
<linearGradient id="paint0_linear" x1="24.7144" y1="14.9363" x2="12.9433" y2="30.2609" gradientUnits="userSpaceOnUse">
<stop stop-color="#DC1E3A"/>
<stop offset="1" stop-color="#FEBB12"/>
</linearGradient>
<linearGradient id="paint1_linear" x1="12.2243" y1="21.2819" x2="6.72415" y2="33.7555" gradientUnits="userSpaceOnUse">
<stop stop-color="white"/>
<stop offset="1" stop-color="#EFC9C1"/>
</linearGradient>
<linearGradient id="paint2_linear" x1="12.2243" y1="21.2819" x2="6.72415" y2="33.7555" gradientUnits="userSpaceOnUse">
<stop stop-color="white"/>
<stop offset="1" stop-color="#EFC9C1"/>
</linearGradient>
<linearGradient id="paint3_linear" x1="16.6267" y1="15.4291" x2="11.6617" y2="26.6892" gradientUnits="userSpaceOnUse">
<stop stop-color="white"/>
<stop offset="1" stop-color="#EFC9C1"/>
</linearGradient>
<linearGradient id="paint4_linear" x1="18.7622" y1="15.7815" x2="11.9945" y2="14.0564" gradientUnits="userSpaceOnUse">
<stop stop-color="white"/>
<stop offset="1" stop-color="#EFC9C1"/>
</linearGradient>
<linearGradient id="paint5_linear" x1="19.4342" y1="19.1984" x2="14.6417" y2="17.9768" gradientUnits="userSpaceOnUse">
<stop stop-color="white"/>
<stop offset="1" stop-color="#EFC9C1"/>
</linearGradient>
<linearGradient id="paint6_linear" x1="0.00166913" y1="20.9394" x2="15.0852" y2="20.9394" gradientUnits="userSpaceOnUse">
<stop stop-color="#DC1E3A"/>
<stop offset="1" stop-color="#FEBB12"/>
</linearGradient>
<linearGradient id="paint7_linear" x1="6.4003" y1="32.7526" x2="7.19761" y2="10.8577" gradientUnits="userSpaceOnUse">
<stop stop-color="#DC1E3A"/>
<stop offset="1" stop-color="#FEBB12"/>
</linearGradient>
<linearGradient id="paint8_linear" x1="22.9642" y1="-7.06226" x2="22.9642" y2="24.2398" gradientUnits="userSpaceOnUse">
<stop stop-color="#DC1E3A"/>
<stop offset="1" stop-color="#FEBB12"/>
</linearGradient>
<linearGradient id="paint9_linear" x1="25.9061" y1="-1.71576" x2="24.0026" y2="17.4502" gradientUnits="userSpaceOnUse">
<stop stop-color="#DC1E3A"/>
<stop offset="1" stop-color="#FEBB12"/>
</linearGradient>
<linearGradient id="paint10_linear" x1="25.6461" y1="3.41594" x2="28.1478" y2="16.0272" gradientUnits="userSpaceOnUse">
<stop stop-color="white"/>
<stop offset="1" stop-color="#EFC9C1"/>
</linearGradient>
</defs>
</svg>
